<?xml version="1.0" encoding="UTF-8"?>
<svg xmlns="http://www.w3.org/2000/svg" xmlns:xlink="http://www.w3.org/1999/xlink" width="1926" height="1925" viewBox="0 0 1926 1925">
<path fill-rule="evenodd" fill="rgb(99.609375%, 99.609375%, 99.609375%)" fill-opacity="1" d="M 963.382812 2.410156 C 1493.578125 2.410156 1923.378906 432.21875 1923.378906 962.414062 C 1923.378906 1492.605469 1493.578125 1922.414062 963.382812 1922.414062 C 433.191406 1922.414062 3.382812 1492.605469 3.382812 962.414062 C 3.382812 432.21875 433.191406 2.410156 963.382812 2.410156 "/>
<path fill="none" stroke-width="47.9991" stroke-linecap="butt" stroke-linejoin="miter" stroke="rgb(0%, 0%, 0%)" stroke-opacity="1" stroke-miterlimit="22.9256" d="M 9633.828125 19225.898438 C 14935.78125 19225.898438 19233.789062 14927.8125 19233.789062 9625.859375 C 19233.789062 4323.945312 14935.78125 25.859375 9633.828125 25.859375 C 4331.914062 25.859375 33.828125 4323.945312 33.828125 9625.859375 C 33.828125 14927.8125 4331.914062 19225.898438 9633.828125 19225.898438 Z M 9633.828125 19225.898438 " transform="matrix(0.1, 0, 0, -0.1, 0, 1925)"/>
<path fill="none" stroke-width="47.9991" stroke-linecap="butt" stroke-linejoin="miter" stroke="rgb(0%, 0%, 0%)" stroke-opacity="1" stroke-miterlimit="22.9256" d="M 6411.679688 18671.015625 C 6235.859375 18566.40625 6235.820312 18566.40625 6070.898438 18388.085938 C 5448.242188 18090.898438 5448.242188 18090.898438 4851.875 17764.882812 C 4265.742188 17401.992188 4265.742188 17401.992188 3707.304688 17011.796875 C 3484.140625 16954.414062 3483.671875 16954.21875 3324.960938 16861.40625 " transform="matrix(0.1, 0, 0, -0.1, 0, 1925)"/>
<path fill="none" stroke-width="47.9991" stroke-linecap="butt" stroke-linejoin="miter" stroke="rgb(0%, 0%, 0%)" stroke-opacity="1" stroke-miterlimit="22.9256" d="M 10714.414062 19165 C 10732.890625 19157.617188 10732.890625 19157.617188 10759.6875 19138.90625 C 10822.109375 19021.601562 10822.109375 19021.601562 10888.710938 18809.882812 C 10278.007812 18710.195312 10278.007812 18710.195312 9640.9375 18559.492188 C 8966.875 18361.289062 8966.875 18361.289062 8278.90625 18118.789062 C 7646.210938 18262.382812 7646.210938 18262.382812 7064.6875 18356.09375 C 6538.476562 18398.515625 6538.476562 18398.515625 6070.898438 18388.085938 C 6235.820312 18566.40625 6235.859375 18566.40625 6411.679688 18671.015625 " transform="matrix(0.1, 0, 0, -0.1, 0, 1925)"/>
<path fill-rule="evenodd" fill="rgb(0%, 0%, 0%)" fill-opacity="1" d="M 1501.371094 167.230469 C 1502.101562 167.820312 1502.109375 167.828125 1502.890625 168.371094 C 1476.539062 156.140625 1476.539062 156.140625 1442.871094 149.28125 C 1401.96875 147.621094 1401.96875 147.621094 1354.910156 151.480469 C 1287.609375 118.480469 1287.609375 118.480469 1220.820312 89.550781 C 1154.539062 64.648438 1154.539062 64.648438 1088.871094 44.011719 C 1082.210938 22.839844 1082.210938 22.839844 1075.96875 11.109375 C 1073.289062 9.238281 1073.289062 9.238281 1071.441406 8.5 C 1229.53125 26.21875 1376.03125 82.261719 1501.371094 167.230469 "/>
<path fill="none" stroke-width="47.9991" stroke-linecap="butt" stroke-linejoin="miter" stroke="rgb(0%, 0%, 0%)" stroke-opacity="1" stroke-miterlimit="22.9256" d="M 15013.710938 17577.695312 C 15021.015625 17571.796875 15021.09375 17571.71875 15028.90625 17566.289062 C 14765.390625 17688.59375 14765.390625 17688.59375 14428.710938 17757.1875 C 14019.6875 17773.789062 14019.6875 17773.789062 13549.101562 17735.195312 C 12876.09375 18065.195312 12876.09375 18065.195312 12208.203125 18354.492188 C 11545.390625 18603.515625 11545.390625 18603.515625 10888.710938 18809.882812 C 10822.109375 19021.601562 10822.109375 19021.601562 10759.6875 19138.90625 C 10732.890625 19157.617188 10732.890625 19157.617188 10714.414062 19165 C 12295.3125 18987.8125 13760.3125 18427.382812 15013.710938 17577.695312 Z M 15013.710938 17577.695312 " transform="matrix(0.1, 0, 0, -0.1, 0, 1925)"/>
<path fill="none" stroke-width="47.9991" stroke-linecap="butt" stroke-linejoin="miter" stroke="rgb(0%, 0%, 0%)" stroke-opacity="1" stroke-miterlimit="22.9256" d="M 15013.710938 17577.695312 C 15021.015625 17571.796875 15021.09375 17571.71875 15028.90625 17566.289062 C 14765.390625 17688.59375 14765.390625 17688.59375 14428.710938 17757.1875 C 14019.6875 17773.789062 14019.6875 17773.789062 13549.101562 17735.195312 C 12876.09375 18065.195312 12876.09375 18065.195312 12208.203125 18354.492188 C 11545.390625 18603.515625 11545.390625 18603.515625 10888.710938 18809.882812 C 10822.109375 19021.601562 10822.109375 19021.601562 10759.6875 19138.90625 C 10732.890625 19157.617188 10732.890625 19157.617188 10714.414062 19165 " transform="matrix(0.1, 0, 0, -0.1, 0, 1925)"/>
<path fill="none" stroke-width="47.9991" stroke-linecap="butt" stroke-linejoin="miter" stroke="rgb(0%, 0%, 0%)" stroke-opacity="1" stroke-miterlimit="22.9256" d="M 15263.398438 17401.992188 C 15147.5 17484.609375 15146.992188 17484.882812 15028.90625 17566.289062 C 15021.09375 17571.71875 15021.015625 17571.796875 15013.710938 17577.695312 " transform="matrix(0.1, 0, 0, -0.1, 0, 1925)"/>
<path fill="none" stroke-width="47.9991" stroke-linecap="butt" stroke-linejoin="miter" stroke="rgb(0%, 0%, 0%)" stroke-opacity="1" stroke-miterlimit="22.9256" d="M 3324.960938 16861.40625 C 3483.671875 16954.21875 3484.140625 16954.414062 3707.304688 17011.796875 C 3464.492188 16614.609375 3464.492188 16614.609375 3243.945312 16147.382812 C 3038.398438 15606.992188 3038.398438 15606.992188 2853.984375 15003.789062 C 2307.96875 14537.1875 2307.96875 14537.1875 1808.828125 14060.507812 C 1371.5625 13592.5 1371.5625 13592.5 993.828125 13122.890625 C 856.367188 13270.78125 856.367188 13270.78125 808.789062 13383.984375 C 806.953125 13395.195312 806.953125 13395.195312 810.78125 13414.101562 " transform="matrix(0.1, 0, 0, -0.1, 0, 1925)"/>
<path fill-rule="evenodd" fill="rgb(0%, 0%, 0%)" fill-opacity="1" d="M 607.089844 86.191406 C 653.847656 85.148438 653.847656 85.148438 706.46875 89.390625 C 764.621094 98.761719 764.621094 98.761719 827.890625 113.121094 C 822.292969 160.699219 822.292969 160.699219 817.394531 216.210938 C 812.613281 279.21875 812.613281 279.21875 809.183594 348.808594 C 730.546875 389.800781 730.546875 389.800781 652.355469 433.039062 C 574.984375 478.371094 574.984375 478.371094 499.894531 524.890625 C 436.960938 493.578125 436.960938 493.578125 379.820312 466.289062 C 328.929688 443.460938 328.929688 443.460938 285.398438 424.621094 C 303.839844 364.300781 303.839844 364.300781 324.394531 310.261719 C 346.449219 263.539062 346.449219 263.539062 370.730469 223.820312 C 426.574219 184.800781 426.574219 184.800781 485.1875 148.511719 C 544.824219 115.910156 544.824219 115.910156 607.089844 86.191406 "/>
<path fill="none" stroke-width="47.9991" stroke-linecap="butt" stroke-linejoin="miter" stroke="rgb(0%, 0%, 0%)" stroke-opacity="1" stroke-miterlimit="22.9256" d="M 6070.898438 18388.085938 C 6538.476562 18398.515625 6538.476562 18398.515625 7064.6875 18356.09375 C 7646.210938 18262.382812 7646.210938 18262.382812 8278.90625 18118.789062 C 8222.929688 17643.007812 8222.929688 17643.007812 8173.945312 17087.890625 C 8126.132812 16457.8125 8126.132812 16457.8125 8091.835938 15761.914062 C 7305.46875 15351.992188 7305.46875 15351.992188 6523.554688 14919.609375 C 5749.84375 14466.289062 5749.84375 14466.289062 4998.945312 14001.09375 C 4369.609375 14314.21875 4369.609375 14314.21875 3798.203125 14587.109375 C 3289.296875 14815.390625 3289.296875 14815.390625 2853.984375 15003.789062 C 3038.398438 15606.992188 3038.398438 15606.992188 3243.945312 16147.382812 C 3464.492188 16614.609375 3464.492188 16614.609375 3707.304688 17011.796875 C 4265.742188 17401.992188 4265.742188 17401.992188 4851.875 17764.882812 C 5448.242188 18090.898438 5448.242188 18090.898438 6070.898438 18388.085938 Z M 6070.898438 18388.085938 " transform="matrix(0.1, 0, 0, -0.1, 0, 1925)"/>
<path fill="none" stroke-width="47.9991" stroke-linecap="butt" stroke-linejoin="miter" stroke="rgb(0%, 0%, 0%)" stroke-opacity="1" stroke-miterlimit="22.9256" d="M 6070.898438 18388.085938 C 6538.476562 18398.515625 6538.476562 18398.515625 7064.6875 18356.09375 C 7646.210938 18262.382812 7646.210938 18262.382812 8278.90625 18118.789062 C 8222.929688 17643.007812 8222.929688 17643.007812 8173.945312 17087.890625 C 8126.132812 16457.8125 8126.132812 16457.8125 8091.835938 15761.914062 C 7305.46875 15351.992188 7305.46875 15351.992188 6523.554688 14919.609375 C 5749.84375 14466.289062 5749.84375 14466.289062 4998.945312 14001.09375 C 4369.609375 14314.21875 4369.609375 14314.21875 3798.203125 14587.109375 C 3289.296875 14815.390625 3289.296875 14815.390625 2853.984375 15003.789062 C 3038.398438 15606.992188 3038.398438 15606.992188 3243.945312 16147.382812 C 3464.492188 16614.609375 3464.492188 16614.609375 3707.304688 17011.796875 C 4265.742188 17401.992188 4265.742188 17401.992188 4851.875 17764.882812 C 5448.242188 18090.898438 5448.242188 18090.898438 6070.898438 18388.085938 " transform="matrix(0.1, 0, 0, -0.1, 0, 1925)"/>
<path fill="none" stroke-width="47.9991" stroke-linecap="butt" stroke-linejoin="miter" stroke="rgb(0%, 0%, 0%)" stroke-opacity="1" stroke-miterlimit="22.9256" d="M 10888.710938 18809.882812 C 11545.390625 18603.515625 11545.390625 18603.515625 12208.203125 18354.492188 C 12876.09375 18065.195312 12876.09375 18065.195312 13549.101562 17735.195312 C 13699.101562 17288.085938 13699.101562 17288.085938 13841.40625 16761.09375 C 13970.507812 16162.109375 13970.507812 16162.109375 14086.015625 15496.992188 C 13440.195312 15228.085938 13440.195312 15228.085938 12752.5 14914.6875 C 12019.609375 14567.382812 12019.609375 14567.382812 11247.304688 14189.882812 C 10438.984375 14621.71875 10438.984375 14621.71875 9638.125 15030.703125 C 8852.617188 15412.109375 8852.617188 15412.109375 8091.835938 15761.914062 C 8126.132812 16457.8125 8126.132812 16457.8125 8173.945312 17087.890625 C 8222.929688 17643.007812 8222.929688 17643.007812 8278.90625 18118.789062 C 8966.875 18361.289062 8966.875 18361.289062 9640.9375 18559.492188 C 10278.007812 18710.195312 10278.007812 18710.195312 10888.710938 18809.882812 " transform="matrix(0.1, 0, 0, -0.1, 0, 1925)"/>
<path fill="none" stroke-width="47.9991" stroke-linecap="butt" stroke-linejoin="miter" stroke="rgb(0%, 0%, 0%)" stroke-opacity="1" stroke-miterlimit="22.9256" d="M 15028.90625 17566.289062 C 15146.992188 17484.882812 15147.5 17484.609375 15263.398438 17401.992188 M 17164.492188 15579.804688 C 17279.882812 15426.40625 17279.882812 15426.40625 17388.085938 15267.695312 C 17652.382812 14810.898438 17652.382812 14810.898438 17888.710938 14297.617188 C 17716.40625 14200.117188 17716.40625 14200.117188 17461.484375 14055.78125 C 17126.601562 13866.289062 17126.601562 13866.289062 16715.117188 13633.398438 C 16116.914062 14108.90625 16116.914062 14108.90625 15472.382812 14583.710938 C 14793.984375 15046.40625 14793.984375 15046.40625 14086.015625 15496.992188 C 13970.507812 16162.109375 13970.507812 16162.109375 13841.40625 16761.09375 C 13699.101562 17288.085938 13699.101562 17288.085938 13549.101562 17735.195312 C 14019.6875 17773.789062 14019.6875 17773.789062 14428.710938 17757.1875 C 14765.390625 17688.59375 14765.390625 17688.59375 15028.90625 17566.289062 " transform="matrix(0.1, 0, 0, -0.1, 0, 1925)"/>
<path fill-rule="evenodd" fill="rgb(0%, 0%, 0%)" fill-opacity="1" d="M 1859.289062 616.980469 C 1853.28125 602.839844 1853.28125 602.839844 1846.488281 588 C 1820.960938 541.789062 1820.960938 541.789062 1788.871094 495.238281 C 1765.238281 443.910156 1765.238281 443.910156 1738.808594 398.230469 C 1727.988281 382.359375 1727.988281 382.359375 1716.449219 367.019531 C 1775.851562 442.058594 1824.261719 526.191406 1859.289062 616.980469 "/>
<path fill="none" stroke-width="47.9991" stroke-linecap="butt" stroke-linejoin="miter" stroke="rgb(0%, 0%, 0%)" stroke-opacity="1" stroke-miterlimit="22.9256" d="M 18592.890625 13080.195312 C 18532.8125 13221.601562 18532.8125 13221.601562 18464.882812 13370 C 18209.609375 13832.109375 18209.609375 13832.109375 17888.710938 14297.617188 C 17652.382812 14810.898438 17652.382812 14810.898438 17388.085938 15267.695312 C 17279.882812 15426.40625 17279.882812 15426.40625 17164.492188 15579.804688 C 17758.515625 14829.414062 18242.617188 13988.085938 18592.890625 13080.195312 Z M 18592.890625 13080.195312 " transform="matrix(0.1, 0, 0, -0.1, 0, 1925)"/>
<path fill="none" stroke-width="47.9991" stroke-linecap="butt" stroke-linejoin="miter" stroke="rgb(0%, 0%, 0%)" stroke-opacity="1" stroke-miterlimit="22.9256" d="M 18592.890625 13080.195312 C 18532.8125 13221.601562 18532.8125 13221.601562 18464.882812 13370 C 18209.609375 13832.109375 18209.609375 13832.109375 17888.710938 14297.617188 C 17652.382812 14810.898438 17652.382812 14810.898438 17388.085938 15267.695312 C 17279.882812 15426.40625 17279.882812 15426.40625 17164.492188 15579.804688 " transform="matrix(0.1, 0, 0, -0.1, 0, 1925)"/>
<path fill-rule="evenodd" fill="rgb(0%, 0%, 0%)" fill-opacity="1" d="M 81.078125 583.589844 C 80.695312 585.480469 80.695312 585.480469 80.878906 586.601562 C 85.636719 597.921875 85.636719 597.921875 99.382812 612.710938 C 84.710938 677.46875 84.710938 677.46875 73.050781 745.859375 C 64.640625 816.828125 64.640625 816.828125 59.660156 888.511719 C 33.859375 926.523438 33.859375 926.523438 16.058594 961.851562 C 7.082031 991.589844 7.054688 991.683594 5.050781 1018.390625 C 3.984375 999.863281 3.382812 981.210938 3.382812 962.414062 C 3.382812 827.871094 31.105469 699.820312 81.078125 583.589844 "/>
<path fill="none" stroke-width="47.9991" stroke-linecap="butt" stroke-linejoin="miter" stroke="rgb(0%, 0%, 0%)" stroke-opacity="1" stroke-miterlimit="22.9256" d="M 810.78125 13414.101562 C 806.953125 13395.195312 806.953125 13395.195312 808.789062 13383.984375 C 856.367188 13270.78125 856.367188 13270.78125 993.828125 13122.890625 C 847.109375 12475.3125 847.109375 12475.3125 730.507812 11791.40625 C 646.40625 11081.71875 646.40625 11081.71875 596.601562 10364.882812 C 338.59375 9984.765625 338.59375 9984.765625 160.585938 9631.484375 C 70.820312 9334.101562 70.546875 9333.164062 50.507812 9066.09375 C 39.84375 9251.367188 33.828125 9437.890625 33.828125 9625.859375 C 33.828125 10971.289062 311.054688 12251.796875 810.78125 13414.101562 Z M 810.78125 13414.101562 " transform="matrix(0.1, 0, 0, -0.1, 0, 1925)"/>
<path fill="none" stroke-width="47.9991" stroke-linecap="butt" stroke-linejoin="miter" stroke="rgb(0%, 0%, 0%)" stroke-opacity="1" stroke-miterlimit="22.9256" d="M 810.78125 13414.101562 C 806.953125 13395.195312 806.953125 13395.195312 808.789062 13383.984375 C 856.367188 13270.78125 856.367188 13270.78125 993.828125 13122.890625 C 847.109375 12475.3125 847.109375 12475.3125 730.507812 11791.40625 C 646.40625 11081.71875 646.40625 11081.71875 596.601562 10364.882812 C 338.59375 9984.765625 338.59375 9984.765625 160.585938 9631.484375 C 70.820312 9334.101562 70.546875 9333.164062 50.507812 9066.09375 " transform="matrix(0.1, 0, 0, -0.1, 0, 1925)"/>
<path fill="none" stroke-width="47.9991" stroke-linecap="butt" stroke-linejoin="miter" stroke="rgb(0%, 0%, 0%)" stroke-opacity="1" stroke-miterlimit="22.9256" d="M 2853.984375 15003.789062 C 3289.296875 14815.390625 3289.296875 14815.390625 3798.203125 14587.109375 C 4369.609375 14314.21875 4369.609375 14314.21875 4998.945312 14001.09375 C 4929.648438 13184.21875 4929.648438 13184.21875 4870.976562 12325.117188 C 4830.625 11442.5 4830.625 11442.5 4805.078125 10537.5 C 4089.492188 10079.21875 4089.492188 10079.21875 3419.570312 9629.53125 C 2803.75 9190.9375 2803.75 9190.9375 2247.890625 8783.242188 C 1728.90625 9217.65625 1728.90625 9217.65625 1277.617188 9630.820312 C 898.59375 10006.914062 898.59375 10006.914062 596.601562 10364.882812 C 646.40625 11081.71875 646.40625 11081.71875 730.507812 11791.40625 C 847.109375 12475.3125 847.109375 12475.3125 993.828125 13122.890625 C 1371.5625 13592.5 1371.5625 13592.5 1808.828125 14060.507812 C 2307.96875 14537.1875 2307.96875 14537.1875 2853.984375 15003.789062 " transform="matrix(0.1, 0, 0, -0.1, 0, 1925)"/>
<path fill="none" stroke-width="47.9991" stroke-linecap="butt" stroke-linejoin="miter" stroke="rgb(0%, 0%, 0%)" stroke-opacity="1" stroke-miterlimit="22.9256" d="M 8091.835938 15761.914062 C 8852.617188 15412.109375 8852.617188 15412.109375 9638.125 15030.703125 C 10438.984375 14621.71875 10438.984375 14621.71875 11247.304688 14189.882812 C 11270.703125 13333.085938 11270.703125 13333.085938 11291.992188 12437.8125 C 11304.609375 11516.289062 11304.609375 11516.289062 11312.304688 10575.78125 C 10477.382812 10103.28125 10477.382812 10103.28125 9633.828125 9625.859375 C 8790.585938 9147.96875 8790.585938 9147.96875 7955.9375 8674.960938 C 7129.609375 9153.085938 7129.609375 9153.085938 6323.710938 9627.8125 C 5546.5625 10092.1875 5546.5625 10092.1875 4805.078125 10537.5 C 4830.625 11442.5 4830.625 11442.5 4870.976562 12325.117188 C 4929.648438 13184.21875 4929.648438 13184.21875 4998.945312 14001.09375 C 5749.84375 14466.289062 5749.84375 14466.289062 6523.554688 14919.609375 C 7305.46875 15351.992188 7305.46875 15351.992188 8091.835938 15761.914062 " transform="matrix(0.1, 0, 0, -0.1, 0, 1925)"/>
<path fill-rule="evenodd" fill="rgb(0%, 0%, 0%)" fill-opacity="1" d="M 1408.601562 375.300781 C 1479.398438 420.359375 1479.398438 420.359375 1547.238281 466.628906 C 1611.691406 514.109375 1611.691406 514.109375 1671.511719 561.660156 C 1682.929688 636.761719 1682.929688 636.761719 1691.878906 715.320312 C 1698.300781 796.53125 1698.300781 796.53125 1702.109375 879.328125 C 1646.460938 920.011719 1646.460938 920.011719 1584.808594 962.414062 C 1517.890625 1006.867188 1517.890625 1006.867188 1446.308594 1053.289062 C 1372.179688 1008.390625 1372.179688 1008.390625 1294.398438 962.414062 C 1213.828125 915.289062 1213.828125 915.289062 1131.230469 867.421875 C 1130.460938 773.371094 1130.460938 773.371094 1129.199219 681.21875 C 1127.070312 591.691406 1127.070312 591.691406 1124.730469 506.011719 C 1201.960938 468.261719 1201.960938 468.261719 1275.25 433.53125 C 1344.019531 402.191406 1344.019531 402.191406 1408.601562 375.300781 "/>
<path fill="none" stroke-width="47.9991" stroke-linecap="butt" stroke-linejoin="miter" stroke="rgb(0%, 0%, 0%)" stroke-opacity="1" stroke-miterlimit="22.9256" d="M 14086.015625 15496.992188 C 14793.984375 15046.40625 14793.984375 15046.40625 15472.382812 14583.710938 C 16116.914062 14108.90625 16116.914062 14108.90625 16715.117188 13633.398438 C 16829.296875 12882.382812 16829.296875 12882.382812 16918.789062 12096.796875 C 16983.007812 11284.6875 16983.007812 11284.6875 17021.09375 10456.71875 C 16464.609375 10049.882812 16464.609375 10049.882812 15848.085938 9625.859375 C 15178.90625 9181.328125 15178.90625 9181.328125 14463.085938 8717.109375 C 13721.796875 9166.09375 13721.796875 9166.09375 12943.984375 9625.859375 C 12138.28125 10097.109375 12138.28125 10097.109375 11312.304688 10575.78125 C 11304.609375 11516.289062 11304.609375 11516.289062 11291.992188 12437.8125 C 11270.703125 13333.085938 11270.703125 13333.085938 11247.304688 14189.882812 C 12019.609375 14567.382812 12019.609375 14567.382812 12752.5 14914.6875 C 13440.195312 15228.085938 13440.195312 15228.085938 14086.015625 15496.992188 Z M 14086.015625 15496.992188 " transform="matrix(0.1, 0, 0, -0.1, 0, 1925)"/>
<path fill="none" stroke-width="47.9991" stroke-linecap="butt" stroke-linejoin="miter" stroke="rgb(0%, 0%, 0%)" stroke-opacity="1" stroke-miterlimit="22.9256" d="M 14086.015625 15496.992188 C 14793.984375 15046.40625 14793.984375 15046.40625 15472.382812 14583.710938 C 16116.914062 14108.90625 16116.914062 14108.90625 16715.117188 13633.398438 C 16829.296875 12882.382812 16829.296875 12882.382812 16918.789062 12096.796875 C 16983.007812 11284.6875 16983.007812 11284.6875 17021.09375 10456.71875 C 16464.609375 10049.882812 16464.609375 10049.882812 15848.085938 9625.859375 C 15178.90625 9181.328125 15178.90625 9181.328125 14463.085938 8717.109375 C 13721.796875 9166.09375 13721.796875 9166.09375 12943.984375 9625.859375 C 12138.28125 10097.109375 12138.28125 10097.109375 11312.304688 10575.78125 C 11304.609375 11516.289062 11304.609375 11516.289062 11291.992188 12437.8125 C 11270.703125 13333.085938 11270.703125 13333.085938 11247.304688 14189.882812 C 12019.609375 14567.382812 12019.609375 14567.382812 12752.5 14914.6875 C 13440.195312 15228.085938 13440.195312 15228.085938 14086.015625 15496.992188 " transform="matrix(0.1, 0, 0, -0.1, 0, 1925)"/>
<path fill="none" stroke-width="47.9991" stroke-linecap="butt" stroke-linejoin="miter" stroke="rgb(0%, 0%, 0%)" stroke-opacity="1" stroke-miterlimit="22.9256" d="M 17888.710938 14297.617188 C 18209.609375 13832.109375 18209.609375 13832.109375 18464.882812 13370 C 18532.8125 13221.601562 18532.8125 13221.601562 18592.890625 13080.195312 M 19218.085938 10171.015625 C 19197.304688 9912.851562 19197.109375 9912.226562 19107.109375 9625.859375 C 18929.6875 9281.757812 18929.6875 9281.757812 18672.1875 8901.25 C 18369.296875 9250 18369.296875 9250 17990.117188 9625.859375 C 17538.984375 10029.414062 17538.984375 10029.414062 17021.09375 10456.71875 C 16983.007812 11284.6875 16983.007812 11284.6875 16918.789062 12096.796875 C 16829.296875 12882.382812 16829.296875 12882.382812 16715.117188 13633.398438 C 17126.601562 13866.289062 17126.601562 13866.289062 17461.484375 14055.78125 C 17716.40625 14200.117188 17716.40625 14200.117188 17888.710938 14297.617188 " transform="matrix(0.1, 0, 0, -0.1, 0, 1925)"/>
<path fill="none" stroke-width="47.9991" stroke-linecap="butt" stroke-linejoin="miter" stroke="rgb(0%, 0%, 0%)" stroke-opacity="1" stroke-miterlimit="22.9256" d="M 596.601562 10364.882812 C 898.59375 10006.914062 898.59375 10006.914062 1277.617188 9630.820312 C 1728.90625 9217.65625 1728.90625 9217.65625 2247.890625 8783.242188 C 2287.304688 7955.3125 2287.304688 7955.3125 2350.3125 7150.664062 C 2440.351562 6365.078125 2440.351562 6365.078125 2554.960938 5614.101562 C 2143.632812 5380.976562 2143.632812 5380.976562 1808.828125 5191.25 C 1554.023438 5046.835938 1554.023438 5046.835938 1381.796875 4949.21875 C 1060.546875 5414.570312 1060.546875 5414.570312 808.789062 5867.695312 C 740.585938 6015.976562 740.585938 6015.976562 676.757812 6166.25 L 676.71875 6166.25 M 50.507812 9066.09375 C 70.546875 9333.164062 70.820312 9334.101562 160.585938 9631.484375 C 338.59375 9984.765625 338.59375 9984.765625 596.601562 10364.882812 " transform="matrix(0.1, 0, 0, -0.1, 0, 1925)"/>
<path fill-rule="evenodd" fill="rgb(0%, 0%, 0%)" fill-opacity="1" d="M 480.507812 871.25 C 554.65625 915.78125 554.65625 915.78125 632.371094 962.21875 C 712.960938 1009.691406 712.960938 1009.691406 795.59375 1057.503906 C 796.421875 1151.554688 796.421875 1151.554688 798.015625 1243.875 C 799.914062 1333.234375 799.914062 1333.234375 802.3125 1418.910156 C 725.59375 1456.945312 725.59375 1456.945312 652.355469 1491.789062 C 583.074219 1522.863281 583.074219 1522.863281 519.105469 1550.238281 C 447.6875 1504.773438 447.6875 1504.773438 379.820312 1458.539062 C 315.339844 1411.105469 315.339844 1411.105469 255.496094 1363.589844 C 244.035156 1288.492188 244.035156 1288.492188 235.03125 1209.933594 C 228.730469 1129.46875 228.730469 1129.46875 224.789062 1046.675781 C 280.375 1005.90625 280.375 1005.90625 341.957031 962.046875 C 408.949219 917.078125 408.949219 917.078125 480.507812 871.25 "/>
<path fill="none" stroke-width="47.9991" stroke-linecap="butt" stroke-linejoin="miter" stroke="rgb(0%, 0%, 0%)" stroke-opacity="1" stroke-miterlimit="22.9256" d="M 4805.078125 10537.5 C 5546.5625 10092.1875 5546.5625 10092.1875 6323.710938 9627.8125 C 7129.609375 9153.085938 7129.609375 9153.085938 7955.9375 8674.960938 C 7964.21875 7734.453125 7964.21875 7734.453125 7980.15625 6811.25 C 7999.140625 5917.65625 7999.140625 5917.65625 8023.125 5060.898438 C 7255.9375 4680.546875 7255.9375 4680.546875 6523.554688 4332.109375 C 5830.742188 4021.367188 5830.742188 4021.367188 5191.054688 3747.617188 C 4476.875 4202.265625 4476.875 4202.265625 3798.203125 4664.609375 C 3153.398438 5138.945312 3153.398438 5138.945312 2554.960938 5614.101562 C 2440.351562 6365.078125 2440.351562 6365.078125 2350.3125 7150.664062 C 2287.304688 7955.3125 2287.304688 7955.3125 2247.890625 8783.242188 C 2803.75 9190.9375 2803.75 9190.9375 3419.570312 9629.53125 C 4089.492188 10079.21875 4089.492188 10079.21875 4805.078125 10537.5 Z M 4805.078125 10537.5 " transform="matrix(0.1, 0, 0, -0.1, 0, 1925)"/>
<path fill="none" stroke-width="47.9991" stroke-linecap="butt" stroke-linejoin="miter" stroke="rgb(0%, 0%, 0%)" stroke-opacity="1" stroke-miterlimit="22.9256" d="M 4805.078125 10537.5 C 5546.5625 10092.1875 5546.5625 10092.1875 6323.710938 9627.8125 C 7129.609375 9153.085938 7129.609375 9153.085938 7955.9375 8674.960938 C 7964.21875 7734.453125 7964.21875 7734.453125 7980.15625 6811.25 C 7999.140625 5917.65625 7999.140625 5917.65625 8023.125 5060.898438 C 7255.9375 4680.546875 7255.9375 4680.546875 6523.554688 4332.109375 C 5830.742188 4021.367188 5830.742188 4021.367188 5191.054688 3747.617188 C 4476.875 4202.265625 4476.875 4202.265625 3798.203125 4664.609375 C 3153.398438 5138.945312 3153.398438 5138.945312 2554.960938 5614.101562 C 2440.351562 6365.078125 2440.351562 6365.078125 2350.3125 7150.664062 C 2287.304688 7955.3125 2287.304688 7955.3125 2247.890625 8783.242188 C 2803.75 9190.9375 2803.75 9190.9375 3419.570312 9629.53125 C 4089.492188 10079.21875 4089.492188 10079.21875 4805.078125 10537.5 " transform="matrix(0.1, 0, 0, -0.1, 0, 1925)"/>
<path fill="none" stroke-width="47.9991" stroke-linecap="butt" stroke-linejoin="miter" stroke="rgb(0%, 0%, 0%)" stroke-opacity="1" stroke-miterlimit="22.9256" d="M 11312.304688 10575.78125 C 12138.28125 10097.109375 12138.28125 10097.109375 12943.984375 9625.859375 C 13721.796875 9166.09375 13721.796875 9166.09375 14463.085938 8717.109375 C 14439.882812 7816.835938 14439.882812 7816.835938 14398.28125 6929.453125 C 14343.710938 6075.039062 14343.710938 6075.039062 14271.289062 5253.320312 C 13520.703125 4787.695312 13520.703125 4787.695312 12752.5 4337.070312 C 11971.289062 3903.4375 11971.289062 3903.4375 11185.585938 3492.34375 C 10424.296875 3840.859375 10424.296875 3840.859375 9638.125 4221.054688 C 8836.601562 4628.789062 8836.601562 4628.789062 8023.125 5060.898438 C 7999.140625 5917.65625 7999.140625 5917.65625 7980.15625 6811.25 C 7964.21875 7734.453125 7964.21875 7734.453125 7955.9375 8674.960938 C 8790.585938 9147.96875 8790.585938 9147.96875 9633.828125 9625.859375 C 10477.382812 10103.28125 10477.382812 10103.28125 11312.304688 10575.78125 " transform="matrix(0.1, 0, 0, -0.1, 0, 1925)"/>
<path fill="none" stroke-width="47.9991" stroke-linecap="butt" stroke-linejoin="miter" stroke="rgb(0%, 0%, 0%)" stroke-opacity="1" stroke-miterlimit="22.9256" d="M 17021.09375 10456.71875 C 17538.984375 10029.414062 17538.984375 10029.414062 17990.117188 9625.859375 C 18369.296875 9250 18369.296875 9250 18672.1875 8901.25 C 18622.109375 8175.351562 18622.109375 8175.351562 18538.398438 7465.625 C 18425.117188 6790.390625 18425.117188 6790.390625 18275.898438 6133.945312 C 17902.382812 5672.382812 17902.382812 5672.382812 17461.484375 5195.898438 C 16967.5 4726.171875 16967.5 4726.171875 16416.914062 4251.992188 C 15981.484375 4440.078125 15981.484375 4440.078125 15472.382812 4668.046875 C 14900.898438 4940.703125 14900.898438 4940.703125 14271.289062 5253.320312 C 14343.710938 6075.039062 14343.710938 6075.039062 14398.28125 6929.453125 C 14439.882812 7816.835938 14439.882812 7816.835938 14463.085938 8717.109375 C 15178.90625 9181.328125 15178.90625 9181.328125 15848.085938 9625.859375 C 16464.609375 10049.882812 16464.609375 10049.882812 17021.09375 10456.71875 " transform="matrix(0.1, 0, 0, -0.1, 0, 1925)"/>
<path fill-rule="evenodd" fill="rgb(0%, 0%, 0%)" fill-opacity="1" d="M 1846.289062 1339.871094 L 1846.28125 1339.867188 C 1846.289062 1338.828125 1846.289062 1338.828125 1846.488281 1336.824219 C 1841.351562 1326.386719 1841.351562 1326.386719 1827.589844 1311.605469 C 1842.511719 1245.960938 1842.511719 1245.960938 1853.839844 1178.4375 C 1862.210938 1107.464844 1862.210938 1107.464844 1867.21875 1034.875 C 1892.96875 996.824219 1892.96875 996.824219 1910.710938 962.414062 C 1919.710938 933.777344 1919.730469 933.714844 1921.808594 907.898438 C 1922.820312 925.945312 1923.378906 944.113281 1923.378906 962.414062 C 1923.378906 1096.425781 1895.890625 1224.003906 1846.289062 1339.871094 "/>
<path fill="none" stroke-width="47.9991" stroke-linecap="butt" stroke-linejoin="miter" stroke="rgb(0%, 0%, 0%)" stroke-opacity="1" stroke-miterlimit="22.9256" d="M 18462.890625 5851.289062 L 18462.8125 5851.328125 C 18462.890625 5861.71875 18462.890625 5861.71875 18464.882812 5881.757812 C 18413.515625 5986.132812 18413.515625 5986.132812 18275.898438 6133.945312 C 18425.117188 6790.390625 18425.117188 6790.390625 18538.398438 7465.625 C 18622.109375 8175.351562 18622.109375 8175.351562 18672.1875 8901.25 C 18929.6875 9281.757812 18929.6875 9281.757812 19107.109375 9625.859375 C 19197.109375 9912.226562 19197.304688 9912.851562 19218.085938 10171.015625 C 19228.203125 9990.546875 19233.789062 9808.867188 19233.789062 9625.859375 C 19233.789062 8285.742188 18958.90625 7009.960938 18462.890625 5851.289062 Z M 18462.890625 5851.289062 " transform="matrix(0.1, 0, 0, -0.1, 0, 1925)"/>
<path fill="none" stroke-width="47.9991" stroke-linecap="butt" stroke-linejoin="miter" stroke="rgb(0%, 0%, 0%)" stroke-opacity="1" stroke-miterlimit="22.9256" d="M 18462.890625 5851.289062 L 18462.8125 5851.328125 C 18462.890625 5861.71875 18462.890625 5861.71875 18464.882812 5881.757812 C 18413.515625 5986.132812 18413.515625 5986.132812 18275.898438 6133.945312 C 18425.117188 6790.390625 18425.117188 6790.390625 18538.398438 7465.625 C 18622.109375 8175.351562 18622.109375 8175.351562 18672.1875 8901.25 C 18929.6875 9281.757812 18929.6875 9281.757812 19107.109375 9625.859375 C 19197.109375 9912.226562 19197.304688 9912.851562 19218.085938 10171.015625 " transform="matrix(0.1, 0, 0, -0.1, 0, 1925)"/>
<path fill-rule="evenodd" fill="rgb(0%, 0%, 0%)" fill-opacity="1" d="M 67.671875 1308.375 L 67.675781 1308.375 C 74.058594 1323.402344 74.058594 1323.402344 80.878906 1338.230469 C 106.054688 1383.542969 106.054688 1383.542969 138.179688 1430.078125 C 161.835938 1481.390625 161.835938 1481.390625 188.296875 1527.058594 C 199.097656 1542.882812 199.121094 1542.921875 210.59375 1558.152344 C 151.179688 1483.167969 102.738281 1399.101562 67.671875 1308.375 "/>
<path fill="none" stroke-width="47.9991" stroke-linecap="butt" stroke-linejoin="miter" stroke="rgb(0%, 0%, 0%)" stroke-opacity="1" stroke-miterlimit="22.9256" d="M 676.71875 6166.25 L 676.757812 6166.25 C 740.585938 6015.976562 740.585938 6015.976562 808.789062 5867.695312 C 1060.546875 5414.570312 1060.546875 5414.570312 1381.796875 4949.21875 C 1618.359375 4436.09375 1618.359375 4436.09375 1882.96875 3979.414062 C 1990.976562 3821.171875 1991.210938 3820.78125 2105.9375 3668.476562 C 1511.796875 4418.320312 1027.382812 5258.984375 676.71875 6166.25 Z M 676.71875 6166.25 " transform="matrix(0.1, 0, 0, -0.1, 0, 1925)"/>
<path fill="none" stroke-width="47.9991" stroke-linecap="butt" stroke-linejoin="miter" stroke="rgb(0%, 0%, 0%)" stroke-opacity="1" stroke-miterlimit="22.9256" d="M 676.71875 6166.25 L 676.757812 6166.25 C 740.585938 6015.976562 740.585938 6015.976562 808.789062 5867.695312 C 1060.546875 5414.570312 1060.546875 5414.570312 1381.796875 4949.21875 C 1618.359375 4436.09375 1618.359375 4436.09375 1882.96875 3979.414062 C 1990.976562 3821.171875 1991.210938 3820.78125 2105.9375 3668.476562 " transform="matrix(0.1, 0, 0, -0.1, 0, 1925)"/>
<path fill="none" stroke-width="47.9991" stroke-linecap="butt" stroke-linejoin="miter" stroke="rgb(0%, 0%, 0%)" stroke-opacity="1" stroke-miterlimit="22.9256" d="M 2554.960938 5614.101562 C 3153.398438 5138.945312 3153.398438 5138.945312 3798.203125 4664.609375 C 4476.875 4202.265625 4476.875 4202.265625 5191.054688 3747.617188 C 5307.539062 3082.695312 5307.539062 3082.695312 5437.65625 2483.867188 C 5573.125 1961.25 5573.125 1961.25 5731.523438 1510.273438 C 5260.976562 1470.898438 5260.976562 1470.898438 4851.875 1486.875 C 4507.03125 1560.117188 4507.03125 1560.117188 4243.4375 1682.1875 C 4124.84375 1763.90625 4124.84375 1763.90625 4007.5 1847.34375 M 2105.9375 3668.476562 C 1991.210938 3820.78125 1990.976562 3821.171875 1882.96875 3979.414062 C 1618.359375 4436.09375 1618.359375 4436.09375 1381.796875 4949.21875 C 1554.023438 5046.835938 1554.023438 5046.835938 1808.828125 5191.25 C 2143.632812 5380.976562 2143.632812 5380.976562 2554.960938 5614.101562 " transform="matrix(0.1, 0, 0, -0.1, 0, 1925)"/>
<path fill="none" stroke-width="47.9991" stroke-linecap="butt" stroke-linejoin="miter" stroke="rgb(0%, 0%, 0%)" stroke-opacity="1" stroke-miterlimit="22.9256" d="M 8023.125 5060.898438 C 8836.601562 4628.789062 8836.601562 4628.789062 9638.125 4221.054688 C 10424.296875 3840.859375 10424.296875 3840.859375 11185.585938 3492.34375 C 11145.585938 2794.804688 11145.585938 2794.804688 11098.203125 2164.726562 C 11057.5 1610.976562 11057.5 1610.976562 11002.304688 1135.039062 C 10306.015625 890.859375 10306.015625 890.859375 9640.9375 692.1875 C 8995 541.171875 8995 541.171875 8393.59375 439.804688 C 7736.523438 645.15625 7736.523438 645.15625 7064.6875 895.664062 C 6396.601562 1184.648438 6396.601562 1184.648438 5731.523438 1510.273438 C 5573.125 1961.25 5573.125 1961.25 5437.65625 2483.867188 C 5307.539062 3082.695312 5307.539062 3082.695312 5191.054688 3747.617188 C 5830.742188 4021.367188 5830.742188 4021.367188 6523.554688 4332.109375 C 7255.9375 4680.546875 7255.9375 4680.546875 8023.125 5060.898438 " transform="matrix(0.1, 0, 0, -0.1, 0, 1925)"/>
<path fill-rule="evenodd" fill="rgb(0%, 0%, 0%)" fill-opacity="1" d="M 1427.128906 1399.667969 C 1490.089844 1430.929688 1490.089844 1430.929688 1547.238281 1458.195312 C 1598.148438 1480.992188 1598.148438 1480.992188 1641.691406 1499.800781 C 1623.28125 1560.140625 1623.28125 1560.140625 1603.410156 1613.546875 C 1580.730469 1660.921875 1580.730469 1660.921875 1556.46875 1700.660156 C 1500.648438 1739.710938 1500.648438 1739.710938 1442.871094 1775.550781 C 1382.441406 1808.664062 1382.441406 1808.664062 1321.070312 1838.070312 C 1273.441406 1839.496094 1273.441406 1839.496094 1220.820312 1835.28125 C 1162.660156 1825.945312 1162.660156 1825.945312 1100.230469 1811.496094 C 1105.75 1763.902344 1105.75 1763.902344 1109.820312 1708.527344 C 1114.558594 1645.519531 1114.558594 1645.519531 1118.558594 1575.765625 C 1197.128906 1534.65625 1197.128906 1534.65625 1275.25 1491.292969 C 1352.070312 1446.230469 1352.070312 1446.230469 1427.128906 1399.667969 "/>
<path fill="none" stroke-width="47.9991" stroke-linecap="butt" stroke-linejoin="miter" stroke="rgb(0%, 0%, 0%)" stroke-opacity="1" stroke-miterlimit="22.9256" d="M 14271.289062 5253.320312 C 14900.898438 4940.703125 14900.898438 4940.703125 15472.382812 4668.046875 C 15981.484375 4440.078125 15981.484375 4440.078125 16416.914062 4251.992188 C 16232.8125 3648.59375 16232.8125 3648.59375 16034.101562 3114.53125 C 15807.304688 2640.78125 15807.304688 2640.78125 15564.6875 2243.398438 C 15006.484375 1852.890625 15006.484375 1852.890625 14428.710938 1494.492188 C 13824.414062 1163.359375 13824.414062 1163.359375 13210.703125 869.296875 C 12734.414062 855.039062 12734.414062 855.039062 12208.203125 897.1875 C 11626.601562 990.546875 11626.601562 990.546875 11002.304688 1135.039062 C 11057.5 1610.976562 11057.5 1610.976562 11098.203125 2164.726562 C 11145.585938 2794.804688 11145.585938 2794.804688 11185.585938 3492.34375 C 11971.289062 3903.4375 11971.289062 3903.4375 12752.5 4337.070312 C 13520.703125 4787.695312 13520.703125 4787.695312 14271.289062 5253.320312 Z M 14271.289062 5253.320312 " transform="matrix(0.1, 0, 0, -0.1, 0, 1925)"/>
<path fill="none" stroke-width="47.9991" stroke-linecap="butt" stroke-linejoin="miter" stroke="rgb(0%, 0%, 0%)" stroke-opacity="1" stroke-miterlimit="22.9256" d="M 14271.289062 5253.320312 C 14900.898438 4940.703125 14900.898438 4940.703125 15472.382812 4668.046875 C 15981.484375 4440.078125 15981.484375 4440.078125 16416.914062 4251.992188 C 16232.8125 3648.59375 16232.8125 3648.59375 16034.101562 3114.53125 C 15807.304688 2640.78125 15807.304688 2640.78125 15564.6875 2243.398438 C 15006.484375 1852.890625 15006.484375 1852.890625 14428.710938 1494.492188 C 13824.414062 1163.359375 13824.414062 1163.359375 13210.703125 869.296875 C 12734.414062 855.039062 12734.414062 855.039062 12208.203125 897.1875 C 11626.601562 990.546875 11626.601562 990.546875 11002.304688 1135.039062 C 11057.5 1610.976562 11057.5 1610.976562 11098.203125 2164.726562 C 11145.585938 2794.804688 11145.585938 2794.804688 11185.585938 3492.34375 C 11971.289062 3903.4375 11971.289062 3903.4375 12752.5 4337.070312 C 13520.703125 4787.695312 13520.703125 4787.695312 14271.289062 5253.320312 " transform="matrix(0.1, 0, 0, -0.1, 0, 1925)"/>
<path fill="none" stroke-width="47.9991" stroke-linecap="butt" stroke-linejoin="miter" stroke="rgb(0%, 0%, 0%)" stroke-opacity="1" stroke-miterlimit="22.9256" d="M 18275.898438 6133.945312 C 18413.515625 5986.132812 18413.515625 5986.132812 18464.882812 5881.757812 C 18462.890625 5861.71875 18462.890625 5861.71875 18462.8125 5851.328125 L 18462.890625 5851.289062 M 15953.710938 2399.960938 C 15788.28125 2301.132812 15787.617188 2300.9375 15564.6875 2243.398438 C 15807.304688 2640.78125 15807.304688 2640.78125 16034.101562 3114.53125 C 16232.8125 3648.59375 16232.8125 3648.59375 16416.914062 4251.992188 C 16967.5 4726.171875 16967.5 4726.171875 17461.484375 5195.898438 C 17902.382812 5672.382812 17902.382812 5672.382812 18275.898438 6133.945312 " transform="matrix(0.1, 0, 0, -0.1, 0, 1925)"/>
<path fill="none" stroke-width="47.9991" stroke-linecap="butt" stroke-linejoin="miter" stroke="rgb(0%, 0%, 0%)" stroke-opacity="1" stroke-miterlimit="22.9256" d="M 4007.5 1847.34375 C 4124.84375 1763.90625 4124.84375 1763.90625 4243.4375 1682.1875 C 4251.367188 1676.757812 4251.367188 1676.757812 4258.828125 1670.703125 L 4258.828125 1670.625 " transform="matrix(0.1, 0, 0, -0.1, 0, 1925)"/>
<path fill-rule="evenodd" fill="rgb(0%, 0%, 0%)" fill-opacity="1" d="M 573.152344 1773.972656 C 639.660156 1806.535156 639.660156 1806.535156 706.46875 1835.433594 C 773.652344 1860.484375 773.652344 1860.484375 839.359375 1881.019531 C 845.117188 1902.058594 845.117188 1902.058594 852.316406 1913.898438 C 854.046875 1915.648438 854.046875 1915.648438 855.894531 1916.390625 C 697.785156 1898.773438 551.265625 1842.804688 425.882812 1757.9375 L 425.882812 1757.929688 C 425.136719 1757.324219 425.136719 1757.324219 424.34375 1756.78125 C 450.703125 1768.988281 450.703125 1768.988281 485.1875 1776.3125 C 526.097656 1777.910156 526.097656 1777.910156 573.152344 1773.972656 "/>
<path fill="none" stroke-width="47.9991" stroke-linecap="butt" stroke-linejoin="miter" stroke="rgb(0%, 0%, 0%)" stroke-opacity="1" stroke-miterlimit="22.9256" d="M 5731.523438 1510.273438 C 6396.601562 1184.648438 6396.601562 1184.648438 7064.6875 895.664062 C 7736.523438 645.15625 7736.523438 645.15625 8393.59375 439.804688 C 8451.171875 229.414062 8451.171875 229.414062 8523.164062 111.015625 C 8540.46875 93.515625 8540.46875 93.515625 8558.945312 86.09375 C 6977.851562 262.265625 5512.65625 821.953125 4258.828125 1670.625 L 4258.828125 1670.703125 C 4251.367188 1676.757812 4251.367188 1676.757812 4243.4375 1682.1875 C 4507.03125 1560.117188 4507.03125 1560.117188 4851.875 1486.875 C 5260.976562 1470.898438 5260.976562 1470.898438 5731.523438 1510.273438 Z M 5731.523438 1510.273438 " transform="matrix(0.1, 0, 0, -0.1, 0, 1925)"/>
<path fill="none" stroke-width="47.9991" stroke-linecap="butt" stroke-linejoin="miter" stroke="rgb(0%, 0%, 0%)" stroke-opacity="1" stroke-miterlimit="22.9256" d="M 5731.523438 1510.273438 C 6396.601562 1184.648438 6396.601562 1184.648438 7064.6875 895.664062 C 7736.523438 645.15625 7736.523438 645.15625 8393.59375 439.804688 C 8451.171875 229.414062 8451.171875 229.414062 8523.164062 111.015625 C 8540.46875 93.515625 8540.46875 93.515625 8558.945312 86.09375 M 4258.828125 1670.625 L 4258.828125 1670.703125 C 4251.367188 1676.757812 4251.367188 1676.757812 4243.4375 1682.1875 C 4507.03125 1560.117188 4507.03125 1560.117188 4851.875 1486.875 C 5260.976562 1470.898438 5260.976562 1470.898438 5731.523438 1510.273438 " transform="matrix(0.1, 0, 0, -0.1, 0, 1925)"/>
<path fill="none" stroke-width="47.9991" stroke-linecap="butt" stroke-linejoin="miter" stroke="rgb(0%, 0%, 0%)" stroke-opacity="1" stroke-miterlimit="22.9256" d="M 11002.304688 1135.039062 C 11626.601562 990.546875 11626.601562 990.546875 12208.203125 897.1875 C 12734.414062 855.039062 12734.414062 855.039062 13210.703125 869.296875 C 13037.109375 687.34375 13037.109375 687.34375 12861.289062 582.539062 M 8558.945312 86.09375 C 8540.46875 93.515625 8540.46875 93.515625 8523.164062 111.015625 C 8451.171875 229.414062 8451.171875 229.414062 8393.59375 439.804688 C 8995 541.171875 8995 541.171875 9640.9375 692.1875 C 10306.015625 890.859375 10306.015625 890.859375 11002.304688 1135.039062 " transform="matrix(0.1, 0, 0, -0.1, 0, 1925)"/>
<path fill="none" stroke-width="47.9991" stroke-linecap="butt" stroke-linejoin="miter" stroke="rgb(0%, 0%, 0%)" stroke-opacity="1" stroke-miterlimit="22.9256" d="M 15564.6875 2243.398438 C 15787.617188 2300.9375 15788.28125 2301.132812 15953.710938 2399.960938 M 12861.289062 582.539062 C 13037.109375 687.34375 13037.109375 687.34375 13210.703125 869.296875 C 13824.414062 1163.359375 13824.414062 1163.359375 14428.710938 1494.492188 C 15006.484375 1852.890625 15006.484375 1852.890625 15564.6875 2243.398438 " transform="matrix(0.1, 0, 0, -0.1, 0, 1925)"/>
<path fill="none" stroke-width="47.9991" stroke-linecap="butt" stroke-linejoin="miter" stroke="rgb(0%, 0%, 0%)" stroke-opacity="1" stroke-miterlimit="22.9256" d="M 9633.828125 19225.898438 C 14935.78125 19225.898438 19233.789062 14927.8125 19233.789062 9625.859375 C 19233.789062 4323.945312 14935.78125 25.859375 9633.828125 25.859375 C 4331.914062 25.859375 33.828125 4323.945312 33.828125 9625.859375 C 33.828125 14927.8125 4331.914062 19225.898438 9633.828125 19225.898438 Z M 9633.828125 19225.898438 " transform="matrix(0.1, 0, 0, -0.1, 0, 1925)"/>
</svg>
